<?xml version="1.0" encoding="utf-8"?>
<!-- Generator: Adobe Illustrator 27.7.0, SVG Export Plug-In . SVG Version: 6.00 Build 0)  -->
<svg version="1.1" id="Ebene_1" xmlns="http://www.w3.org/2000/svg" xmlns:xlink="http://www.w3.org/1999/xlink" x="0px" y="0px"
	 viewBox="0 0 1019.7 405.3" style="enable-background:new 0 0 1019.7 405.3;" xml:space="preserve">
<style type="text/css">
	.st0{fill:#FFFFFF;}
</style>
<g>
	<path class="st0" d="M689.9,115.8c14.3-5.5,28.4-11.4,42.7-16.8c3-1.2,3.9-2.6,3.9-5.7c-0.1-24.7-0.1-49.3-0.1-74
		c0-1.2-0.2-2.4-0.4-4C639.3,52.4,543,89.4,446.3,126.5c0-7.7,0.4-14.6-0.1-21.3c-2.4-32.9-16.7-58.1-47.4-72.6
		c-16.2-7.7-33.6-10.7-51.4-10.7c-38-0.1-76,0-114,0c-1.9,0-3.9,0-6.3,0c0,65.4,0,130.2,0,195c-6.5-32.9-26.5-51.3-60.4-56
		c2.4-1.5,3.8-2.3,5.1-3.2c12.9-8.1,20.9-19.7,24.8-34.4c3.5-13.3,3.5-26.8,1.7-40.2c-3.2-24.1-15-42.4-37.8-52.5
		c-14.3-6.3-29.4-8.5-44.8-8.6c-32.2-0.2-64.3-0.1-96.5-0.1c-5.8,0-11.6,0-17.8,0c0,99.6,0,198.7,0,298c2.2,0,4,0,5.8,0
		c37.2,0,74.3,0.3,111.5-0.2c12.6-0.1,25.3-1.2,37.7-3.3c20.2-3.5,38.5-11.6,52.8-27.1c9.2-10,14.5-22.1,18.1-35.2
		c0,21.7,0,43.5,0,65.4c25.8,0,51.2,0,77.2,0c0-38,0-75.7,0-114.8c1.7,2.4,2.6,3.5,3.3,4.7c22.6,35.4,45.2,70.7,67.6,106.2
		c2,3.2,4.2,4.3,8,4.3c28.3-0.2,56.7-0.1,85-0.1c1.7,0,3.5,0,6.5,0c-31.6-41.2-62.4-81.3-93.6-122.1c26.1-5.4,44.5-19.5,56.9-42.2
		c0,1.6,0,3.2,0,4.8c0,16.7,0.1,33.3-0.1,50c0,3,1,4.4,3.7,5.4c28.2,10.5,56.4,21.1,84.6,31.7c62.1,23.4,124.2,46.8,186.3,70.2
		c7.7,2.9,15.4,5.7,23.5,8.7c0-27.2,0.1-53.5-0.2-79.9c0-1.4-2.1-3.5-3.7-4.1c-14.3-5.5-28.6-10.9-43-16.1c-3.6-1.3-4.8-3-4.7-6.8
		c0.1-32.2,0.2-64.3,0-96.5C684.8,118.7,686.4,117.1,689.9,115.8z M78.7,81.2c11.7,0.2,23.2-0.2,34.1,3.9c8,3.1,13.3,8.6,14.8,17.3
		c3.4,19.5-3.3,30.4-22.6,34.6c-8.4,1.8-17.3,1.7-26.3,2.4C78.7,119.4,78.7,100.6,78.7,81.2z M147.8,240.4
		c-2.9,7.5-8.5,12.4-15.9,14.8c-6.6,2.1-13.5,3.9-20.4,4.4c-10.7,0.7-21.5,0.2-32.9,0.2c0-20.7,0-41.5,0-62.2
		c0.3-0.3,0.6-0.7,0.8-0.7c15.4,0.6,31,0,46.2,2.3C145.3,202.2,155,221.8,147.8,240.4z M365.1,126.3c-2.1,11.3-8.4,19-18.9,23.3
		c-13.2,5.5-27.1,5.9-41.4,5.2c0-24.5,0-48.7,0-73.6c16.4,0,32.5-0.5,47,8.4C363.3,96.7,368,110.6,365.1,126.3z M625.2,203.2
		c-31.5-10.5-62.6-20.9-93.8-31.3c0-0.3,0.1-0.7,0.1-1c31.1-10.5,62.2-21,93.7-31.6C625.2,160.9,625.2,181.8,625.2,203.2z"/>
	<path class="st0" d="M1008.3,67.3c-5.4-21.7-12.8-43-19.3-64.4c-0.6-2.1-1.5-3.6-4.3-2.5c-10.8,4.3-21.7,8.4-32.9,12.7
		c38.9,102.3,39.1,204.3,0.7,306.4c12.1,4.4,23.9,8.7,35.5,12.9c0.6-0.7,0.9-0.9,1.1-1.2c2-5.3,4-10.6,5.9-15.9
		c12.8-36.8,20.7-74.7,23.5-113.5C1021.6,156.5,1019.2,111.4,1008.3,67.3z"/>
	<path class="st0" d="M882.5,39.6c32.5,85.3,32.5,169.8,0.2,254.6c12.2,4.4,24,8.7,36.3,13.1c35.5-94.3,35.3-187.8-0.5-281.6
		C906,30.6,894.4,35.1,882.5,39.6z"/>
	<path class="st0" d="M814.1,65.9c26.3,68,26.1,135.7-0.2,203.3c12.4,4.5,24.1,8.7,36.3,13.2c29.5-77,29.5-153.4,0-230.4
		C837.9,56.7,826.2,61.2,814.1,65.9z"/>
	<path class="st0" d="M303.5,384.3c-14-14.7-27.1-28.3-40.6-42.4c0,20.5,0,40.2,0,59.6c3,0,5.6,0,8.8,0c0-12.7,0-25,0-38.3
		c13.6,14.2,26.5,27.6,40,41.8c0-20.5,0-39.7,0-59c-2.8,0-5.2,0-8.2,0C303.5,358.4,303.5,370.6,303.5,384.3z"/>
	<path class="st0" d="M186.8,375.7c7.4,0,14.4,0,21.4,0c0-2.8,0-5.1,0-8c-7.3,0-14.4,0-21.3,0c0-5,0-9.3,0-14.1c7.5,0,14.6,0,21.9,0
		c0-2.8,0-5.2,0-7.7c-10.3,0-20.3,0-30.5,0c0,19,0,37.4,0,55.6c10.5,0,20.6,0,30.6,0c0-2.7,0-4.9,0-7.8c-7.6,0-14.8,0-22.1,0
		C186.8,387.4,186.8,381.8,186.8,375.7z"/>
	<path class="st0" d="M8.7,375.8c7.4,0,14.4,0,21.4,0c0-2.9,0-5.3,0-8c-7.3,0-14.3,0-21.3,0c0-4.7,0-9.1,0-13.9c7.4,0,14.5,0,22,0
		c0-2.8,0-5.2,0-7.9c-10.3,0-20.3,0-30.7,0c0,18.7,0,37,0,55.7c10.3,0,20.4,0,30.7,0c0-2.6,0-5,0-8c-7.5,0-14.8,0-22,0
		C8.7,387.4,8.7,381.9,8.7,375.8z"/>
	<path class="st0" d="M115.7,352.4c-4.2,10.3-8.3,20.6-12.7,31.8c-4.5-11.1-8.6-21.4-12.9-31.7c-3.2-7.6-0.8-7.3-12.1-6.4
		c8.3,19.7,16.4,39,24.9,59.2c8.6-20.3,16.7-39.7,24.9-59.2C118.7,345.1,118.7,345.1,115.7,352.4z"/>
	<path class="st0" d="M362.6,353.8c4.2,0,8.1,0,12.7,0c0,16.2,0,31.9,0,47.7c3,0,5.5,0,8.4,0c0-16,0-31.7,0-47.8c4.5,0,8.5,0,12.7,0
		c0-2.7,0-5,0-7.6c-11.5,0-22.7,0-33.8,0C362.6,348.8,362.6,351.1,362.6,353.8z"/>
</g>
<g>
	<path class="st0" d="M463.5,373.6h22.1v1.8c0,4-0.5,7.6-1.4,10.7c-0.9,2.9-2.5,5.5-4.7,8c-5,5.6-11.3,8.4-19,8.4
		c-7.5,0-13.9-2.7-19.2-8.1c-5.3-5.4-8-12-8-19.6c0-7.8,2.7-14.4,8.1-19.8c5.4-5.4,12-8.1,19.8-8.1c4.2,0,8.1,0.9,11.7,2.6
		c3.5,1.7,6.9,4.5,10.2,8.3l-5.8,5.5c-4.4-5.8-9.7-8.8-16.1-8.8c-5.7,0-10.4,2-14.3,5.9c-3.8,3.8-5.8,8.6-5.8,14.4
		c0,6,2.1,10.9,6.4,14.7c4,3.6,8.3,5.4,13,5.4c4,0,7.5-1.3,10.7-4c3.2-2.7,4.9-5.9,5.3-9.7h-13.3V373.6z"/>
	<path class="st0" d="M524.6,401.4l11.3-57.6l18.4,41.6l19-41.6l10.1,57.6h-8.3l-5.2-32.3l-15.8,34.8l-15.4-34.8l-5.8,32.4H524.6z"
		/>
	<path class="st0" d="M625.3,401.4v-53.5h8c3.6,0,6.4,0.3,8.6,0.8c2.1,0.6,4,1.5,5.4,2.8c1.5,1.4,2.7,3.1,3.6,5.1
		c0.9,2.1,1.4,4.1,1.4,6.2c0,3.8-1.5,7.1-4.4,9.7c2.8,1,5.1,2.7,6.7,5.1c1.7,2.4,2.5,5.2,2.5,8.4c0,4.2-1.5,7.7-4.4,10.6
		c-1.8,1.8-3.8,3-6,3.7c-2.4,0.7-5.5,1-9.1,1H625.3z M633.4,370.9h2.5c3,0,5.2-0.7,6.6-2s2.1-3.3,2.1-5.9c0-2.5-0.7-4.4-2.1-5.7
		c-1.4-1.3-3.5-2-6.2-2h-2.8V370.9z M633.4,393.8h5c3.7,0,6.3-0.7,8-2.2c1.8-1.5,2.7-3.5,2.7-5.9c0-2.3-0.9-4.3-2.6-5.8
		c-1.7-1.5-4.7-2.3-9-2.3h-4.1V393.8z"/>
	<path class="st0" d="M706,368.8h23.1v-20.9h8.1v53.5h-8.1v-25H706v25h-8.1v-53.5h8.1V368.8z"/>
</g>
</svg>
